<svg xmlns="http://www.w3.org/2000/svg" width="20.026" height="20" viewBox="0 0 20.026 20">
    <path d="M9.344 20a2.019 2.019 0 0 1-1.41-.588 2.006 2.006 0 0 1-.586-1.414v-.458a8.206 8.206 0 0 1-.786-.325l-.321.325a2.05 2.05 0 0 1-2.838 0l-.946-.944a2.008 2.008 0 0 1 0-2.829l.325-.306a9.747 9.747 0 0 1-.325-.782H2a2 2 0 0 1-2-2V9.343a2 2 0 0 1 2-2h.456c.1-.266.208-.527.325-.782l-.325-.325a2.008 2.008 0 0 1 0-2.829l.968-.944a2.008 2.008 0 0 1 2.834 0l.3.325a7.979 7.979 0 0 1 .781-.325V2a2 2 0 0 1 2.005-2h1.341A2.007 2.007 0 0 1 12.1.588 2.029 2.029 0 0 1 12.686 2v.46a8.427 8.427 0 0 1 .781.325l.326-.325a2.01 2.01 0 0 1 2.83 0l.946.944a2.008 2.008 0 0 1 0 2.829l-.33.325c.122.255.23.516.33.782h.451a2 2 0 0 1 1.419.589 2.027 2.027 0 0 1 .586 1.414v1.314a2 2 0 0 1-2.005 2h-.451c-.1.266-.208.527-.33.782l.33.325a2.008 2.008 0 0 1 0 2.829l-.946.944a2 2 0 0 1-2.83 0l-.326-.325a8.426 8.426 0 0 1-.781.325V18a2 2 0 0 1-2 2zm-2.591-4.142a6.484 6.484 0 0 0 1.432.594.678.678 0 0 1 .49.626v.945a.672.672 0 0 0 .668.67h1.35a.682.682 0 0 0 .673-.67v-.951a.664.664 0 0 1 .482-.626 6.614 6.614 0 0 0 1.437-.595.67.67 0 0 1 .794.113l.673.67a.678.678 0 0 0 .942 0l.946-.944a.686.686 0 0 0 0-.945l-.673-.67a.674.674 0 0 1-.113-.8 6.387 6.387 0 0 0 .595-1.433.67.67 0 0 1 .629-.488h.938a.675.675 0 0 0 .668-.67v-1.3a.672.672 0 0 0-.668-.67h-.959a.667.667 0 0 1-.629-.488 6.792 6.792 0 0 0-.59-1.433.667.667 0 0 1 .108-.8l.673-.669a.686.686 0 0 0 0-.945l-.951-1a.666.666 0 0 0-.942 0l-.668.67a.663.663 0 0 1-.794.113 6.614 6.614 0 0 0-1.437-.595.673.673 0 0 1-.486-.626V2a.679.679 0 0 0-.625-.67H9.379a.677.677 0 0 0-.668.67v.964a.669.669 0 0 1-.486.626 6.664 6.664 0 0 0-1.432.594.664.664 0 0 1-.8-.113l-.673-.67a.672.672 0 0 0-.946 0l-.977.945a.669.669 0 0 0 0 .945l.686.663a.681.681 0 0 1 .113.8 6.415 6.415 0 0 0-.625 1.433.67.67 0 0 1-.625.488H2a.683.683 0 0 0-.668.663v1.326a.681.681 0 0 0 .668.67h.933a.666.666 0 0 1 .625.488 6.622 6.622 0 0 0 .625 1.433.656.656 0 0 1-.113.8l-.668.67a.668.668 0 0 0 0 .944l.933.964a.666.666 0 0 0 .942 0l.673-.669a.688.688 0 0 1 .473-.195.7.7 0 0 1 .33.089zm-.078-5.845a3.336 3.336 0 0 1 3.338-3.335 3.341 3.341 0 0 1 3.338 3.335 3.335 3.335 0 0 1-3.338 3.335 3.336 3.336 0 0 1-3.338-3.335zm1.333 0a2 2 0 0 0 2.005 2 2 2 0 0 0 2.005-2 2 2 0 0 0-2.005-2 2 2 0 0 0-2.005 2z"/>
</svg>
